<?xml version="1.0" encoding="UTF-8"?>
<svg width="100px" height="100px" viewBox="0 0 100 100" version="1.1" xmlns="http://www.w3.org/2000/svg" xmlns:xlink="http://www.w3.org/1999/xlink">
    <!-- Generator: Sketch 42 (36781) - http://www.bohemiancoding.com/sketch -->
    <title>Artboard</title>
    <desc>Created with Sketch.</desc>
    <defs>
        <linearGradient x1="-21.9213692%" y1="-27.8441996%" x2="99.9996484%" y2="115.175835%" id="linearGradient-1">
            <stop stop-color="#ED9D50" offset="0%"></stop>
            <stop stop-color="#932158" offset="100%"></stop>
        </linearGradient>
    </defs>
    <g id="Page-1" stroke="none" stroke-width="1" fill="none" fill-rule="evenodd">
        <g id="Artboard" fill-rule="nonzero" fill="url(#linearGradient-1)">
            <path d="M85.5887097,38.4 C86.2951613,37.4080645 86.9806452,36.3935484 87.633871,35.3645161 C91.1096774,41.616129 93.0967742,48.8048387 93.0967742,56.4516129 C93.0967742,66.5193548 89.6532258,75.7919355 83.8951613,83.1758065 C83.8290323,83.2612903 83.7774194,83.3580645 83.6983871,83.4258065 C75.716129,93.5112903 63.3790323,100 49.5483871,100 C48.4370968,100 47.3387097,99.9451613 46.2451613,99.8629032 C46.2306452,99.8629032 46.2145161,99.8693548 46.2,99.8693548 C46.1564516,99.8693548 46.1145161,99.8516129 46.0709677,99.8483871 C38.2209677,99.2241935 30.9532258,96.5177419 24.8209677,92.2709677 C24.7758065,92.25 24.7419355,92.2080645 24.6967742,92.1822581 C13.4064516,84.3064516 6,71.2306452 6,56.4516129 C6,43.4903226 11.6983871,31.8419355 20.7129032,23.8580645 C20.7725806,23.8048387 20.8112903,23.7370968 20.8790323,23.6919355 C20.8951613,23.6806452 20.9129032,23.6806452 20.9290323,23.6709677 C27.716129,17.7387097 36.3483871,13.8741935 45.8435484,13.0677419 C45.5048387,14.1306452 45.2564516,15.2516129 45.0677419,16.4064516 C37.0919355,17.2935484 29.8032258,20.4887097 23.9193548,25.3451613 L26.5096774,29.2306452 C27.6516129,29.6177419 29.433871,30.3887097 30.1096774,31.6032258 C32.0612903,35.116129 29.6612903,40.2177419 28.9,41.6629032 C28.8322581,42.5677419 28.633871,44.6112903 28.1725806,45.7677419 C27.6129032,47.1645161 25.483871,48.4629032 24.0064516,49.2241935 C23.0677419,50.8387097 21.2580645,54.3806452 21.2580645,56.4516129 C21.2580645,59.3048387 23.6177419,59.7758065 24.3387097,59.85 C27.6032258,60.4112903 29.5451613,62.6564516 30.3225806,63.7645161 C31.8129032,64.2193548 34.6709677,65.2935484 35.6983871,67.0870968 C36.8080645,69.0290323 35.6096774,73.4048387 34.8935484,75.5967742 C35.0822581,76.5951613 35.3887097,78.8822581 34.7080645,80.8145161 C34.016129,82.7741935 32.2967742,84.2967742 31.5,84.9225806 C31.0387097,85.9741935 29.7983871,88.5677419 28.0854839,90.5629032 C32.6919355,93.4709677 37.9209677,95.4806452 43.5306452,96.3225806 C42.9209677,94.9564516 42.4758065,93.5451613 42.9096774,92.3532258 C43.4112903,90.9725806 45.3145161,89.9564516 46.9580645,89.316129 C46.7516129,87.6403226 46.7822581,85.0693548 48.5403226,83.6645161 C50.3112903,82.2467742 52.4870968,82.8467742 53.9258065,83.2419355 C54.0370968,83.2725806 54.1629032,83.3064516 54.2854839,83.3403226 C54.4693548,82.1790323 54.5612903,79.883871 54.4887097,77.7129032 C54.4741935,77.2935484 54.6241935,76.8854839 54.9048387,76.5758065 C55.3,76.1403226 58.8629032,72.3145161 62.7274194,71.7725806 C66.3951613,71.2483871 70.8774194,75.6064516 72.3709677,77.1935484 C73.8919355,77.5596774 78.5693548,78.7403226 82.1032258,80.2064516 C86.9822581,73.5387097 89.8709677,65.3274194 89.8709677,56.4516129 C89.8709677,49.9645161 88.3225806,43.8354839 85.5887097,38.4 Z M68.9032258,0 C79.2112903,0 89.8709677,7.65483871 89.8709677,20.4645161 C89.8709677,32.6645161 70.8096774,50.433871 69.9983871,51.183871 C69.6887097,51.4709677 69.2967742,51.6129032 68.9032258,51.6129032 C68.5096774,51.6129032 68.1177419,51.4709677 67.8080645,51.183871 C66.9967742,50.433871 47.9354839,32.6645161 47.9354839,20.4645161 C47.9354839,7.65483871 58.5951613,0 68.9032258,0 Z M68.9032258,27.4193548 C72.466129,27.4193548 75.3548387,24.5306452 75.3548387,20.9677419 C75.3548387,17.4048387 72.466129,14.516129 68.9032258,14.516129 C65.3403226,14.516129 62.4516129,17.4048387 62.4516129,20.9677419 C62.4516129,24.5306452 65.3403226,27.4193548 68.9032258,27.4193548 Z" id="Combined-Shape"></path>
        </g>
    </g>
</svg>